# xmcd
#
# Track frame offsets: 
#        183
#        11563
#        22168
#        36125
#        55690
#        68043
#        79410
#        90600
#        102860
#        113390
#        126863
#        136893
#        151380
#        165598
#        176215
#        192583
#        207498
#        220360
#        231950
#        247138
#        259675
#
# Disc length: 3657 seconds
#
# Revision: 0
# Processed by: cddbd v1.5.2PL0 Copyright (c) Steve Scherf et al.
# Submitted via: ExactAudioCopy v0.99pb4
#
DISCID=2c0e4715
DTITLE=Various Artist - 달콤한 사랑의 음악
DYEAR=1991
DGENRE=
TTITLE0=사랑의 맹세(TILL)
TTITLE1=올리브의 목걸이(EL BIMBO)
TTITLE2=외로운 사람(THE LONELY ONE)
TTITLE3=시바의 여왕(LA REINE DE SABA)
TTITLE4=몌야 쿨파(MEA CULPA)
TTITLE5=아드린느를 위한 발라드(BALLADE POUR ADELINE)
TTITLE6=우울한 사랑(LOVE IS BLUE)
TTITLE7=고독한 사나이(MR. LONELY)
TTITLE8=눈물의 토카타(TOCCATA)
TTITLE9=뮤직박스 댄스(LITTLE MUSIC BOX DANCER)
TTITLE10=장미빛 인생(LA VIE EN ROSE)
TTITLE11=밤하늘의 트럼펫(적막의 부르스)
TTITLE12=눈이 내리네 눈이(TOME LA NEIGE)
TTITLE13=렛잇비(LET IT BE)
TTITLE14=미셸(MICHELLE)
TTITLE15=석양의 트럼펫(BALLATA DELLA TROMBA)
TTITLE16=검은상처의 부르스(BROKEN PROMISES)
TTITLE17=라노비아(LA NOVIA)
TTITLE18=예스터데이 원스 모어(YESTERDAY ONCE MORE)
TTITLE19=침묵의 소리(THE SOUNDS OF SILENCE)
TTITLE20=흑인 올훼(LA CHANSON D ORPHEE)
EXTD=
EXTT0=
EXTT1=
EXTT2=
EXTT3=
EXTT4=
EXTT5=
EXTT6=
EXTT7=
EXTT8=
EXTT9=
EXTT10=
EXTT11=
EXTT12=
EXTT13=
EXTT14=
EXTT15=
EXTT16=
EXTT17=
EXTT18=
EXTT19=
EXTT20=
PLAYORDER=
